<?xml version="1.0" encoding="UTF-8" standalone="no"?>
<!-- Created with Inkscape (http://www.inkscape.org/) -->

<svg
   width="68.158852mm"
   height="131.60564mm"
   viewBox="0 0 68.158852 131.60564"
   version="1.1"
   id="svg944"
   inkscape:version="1.1.2 (b8e25be833, 2022-02-05)"
   sodipodi:docname="git.svg"
   xmlns:inkscape="http://www.inkscape.org/namespaces/inkscape"
   xmlns:sodipodi="http://sodipodi.sourceforge.net/DTD/sodipodi-0.dtd"
   xmlns="http://www.w3.org/2000/svg"
   xmlns:svg="http://www.w3.org/2000/svg">
  <sodipodi:namedview
     id="namedview946"
     pagecolor="#ffffff"
     bordercolor="#666666"
     borderopacity="1.0"
     inkscape:pageshadow="2"
     inkscape:pageopacity="0.0"
     inkscape:pagecheckerboard="0"
     inkscape:document-units="mm"
     showgrid="false"
     inkscape:zoom="1.4984147"
     inkscape:cx="92.097334"
     inkscape:cy="317.66907"
     inkscape:window-width="1920"
     inkscape:window-height="1027"
     inkscape:window-x="-8"
     inkscape:window-y="-8"
     inkscape:window-maximized="1"
     inkscape:current-layer="layer1" />
  <defs
     id="defs941" />
  <g
     inkscape:label="Layer 1"
     inkscape:groupmode="layer"
     id="layer1"
     transform="translate(-63.130561,-130.27359)">
    <path
       style="fill:#000000;stroke-width:0.0725714"
       d="m 80.914494,261.20761 c 0.025,-0.36921 0.52204,-9.72934 1.10447,-20.80029 l 1.05898,-20.12901 -1.19657,-1.78756 c -0.65812,-0.98316 -2.033677,-3.03609 -3.056796,-4.56207 l -1.860219,-2.7745 -0.105913,-5.0995 c -0.05825,-2.80472 -0.114127,-5.42607 -0.124166,-5.82521 l -0.01825,-0.72572 -1.306286,-0.0428 c -0.718457,-0.0235 -1.436914,-0.0666 -1.596571,-0.0958 l -0.290286,-0.053 -0.214052,0.42234 c -0.268305,0.52937 -1.299834,1.57908 -1.866163,1.89905 -1.205836,0.68128 -2.599052,0.81622 -3.797528,0.36782 -0.613964,-0.22971 -1.629903,-0.94249 -2.16105,-1.51618 -1.893299,-2.04494 -1.783651,-5.43308 0.241837,-7.47277 1.001647,-1.00868 2.384615,-1.43962 3.708664,-1.15567 0.470974,0.10101 1.728528,0.62217 2.162819,0.89632 0.439899,0.2777 0.931653,0.79696 1.336026,1.41076 0.186192,0.28262 0.348848,0.51385 0.361455,0.51385 0.01261,0 0.34665,-0.0488 0.742315,-0.10842 0.395666,-0.0596 1.13577,-0.10863 1.644677,-0.10886 l 0.925286,-4.3e-4 -0.0035,-0.78014 c -0.003,-0.68234 -0.196885,-9.74954 -0.209449,-9.79714 -0.0026,-0.01 -0.323196,-0.0183 -0.71236,-0.0184 -0.599568,0 -1.664024,-0.12048 -2.242435,-0.25329 -0.124674,-0.0286 -0.202309,0.0363 -0.386568,0.32348 -0.320913,0.50011 -1.086821,1.19591 -1.603462,1.45671 -0.731755,0.36939 -1.212293,0.46058 -2.425964,0.46036 -0.985748,0 -1.143947,-0.0186 -1.674833,-0.19452 -1.284543,-0.42578 -2.306241,-1.41532 -2.780946,-2.69343 -0.187372,-0.50449 -0.367532,-1.68112 -0.367631,-2.40102 -2.61e-4,-1.93547 1.217236,-3.65721 3.117982,-4.40933 0.716586,-0.28355 1.27461,-0.36682 2.193967,-0.32739 1.343188,0.0576 2.176173,0.42623 3.148339,1.39325 0.477637,0.47511 0.642146,0.70001 0.870857,1.19054 l 0.28198,0.60478 0.798285,-0.0414 c 0.439058,-0.0228 0.994229,-0.013 1.233715,0.0218 0.239485,0.0348 0.443305,0.0564 0.452932,0.0481 0.02672,-0.023 -0.195032,-11.33621 -0.243685,-12.43213 l -0.04269,-0.96158 h -1.175202 -1.175202 l -0.453877,0.50694 c -1.19075,1.32998 -2.87608,2.03034 -4.655707,1.93477 -0.992357,-0.0533 -1.544384,-0.1969 -2.431143,-0.63247 -1.997957,-0.98138 -3.128862,-2.82185 -2.976331,-4.84377 0.17536,-2.32453 1.519501,-4.04246 3.702046,-4.73153 0.720257,-0.2274 2.109994,-0.28013 2.94447,-0.11172 0.789047,0.15925 1.542633,0.46279 2.195315,0.88428 0.576039,0.37199 1.365348,1.14155 1.645643,1.60447 l 0.181429,0.29964 1.041228,0.0228 c 0.572675,0.0126 1.051804,0.006 1.064731,-0.0154 0.01293,-0.0211 -0.05204,-3.74397 -0.14437,-8.27314 -0.09233,-4.52918 -0.157767,-8.2519 -0.145413,-8.27271 0.01235,-0.0208 2.402292,-1.52156 5.31097,-3.33499 l 5.28851,-3.29713 1.58404,-3.08759 c 0.87122,-1.69817 1.65543,-3.1621 1.74268,-3.25316 0.15674,-0.16359 0.22668,-0.16956 5.83728,-0.49761 5.460156,-0.31925 5.684156,-0.32704 5.821916,-0.20236 0.0788,0.0713 1.2266,1.82772 2.55065,3.90314 1.32405,2.07541 2.47431,3.84894 2.55614,3.94118 0.0818,0.0922 2.89198,1.86182 6.24478,3.93239 5.82318,3.59619 6.10008,3.7768 6.18711,4.03553 0.0738,0.2195 0.0636,1.51117 -0.0541,6.8135 -0.0799,3.59846 -0.14536,6.99986 -0.14555,7.55866 l -3.6e-4,1.016 1.46716,-0.0153 1.46716,-0.0153 0.31488,-0.47146 c 0.89511,-1.34025 2.2623,-2.11754 3.86282,-2.19615 1.52898,-0.0751 2.82928,0.41123 4.01283,1.50084 0.65834,0.60609 1.13357,1.33594 1.40084,2.15139 0.18703,0.57068 0.21058,0.74415 0.21033,1.54975 0,0.74816 -0.0301,1.00221 -0.17033,1.4496 -0.83581,2.66631 -3.24162,4.32839 -5.64087,3.89704 -0.78015,-0.14025 -2.37932,-0.81081 -2.91253,-1.22128 -0.40974,-0.31542 -0.93468,-0.95622 -1.18524,-1.44686 l -0.13311,-0.26065 -1.39848,-0.0446 c -0.76916,-0.0246 -1.40655,-0.0366 -1.41641,-0.0267 -0.0256,0.0256 -0.29986,12.56206 -0.27544,12.59052 0.0213,0.0249 2.57486,-0.25803 2.83237,-0.31377 0.0958,-0.0207 0.21373,-0.17075 0.32657,-0.41543 0.11007,-0.23868 0.39642,-0.60702 0.76004,-0.97769 0.47333,-0.48248 0.69932,-0.65029 1.19743,-0.88917 3.18486,-1.52731 7.15437,0.62097 7.50225,4.06019 0.0552,0.54579 -0.0797,1.41962 -0.31543,2.04258 -0.34093,0.90108 -1.12796,1.83933 -2.02758,2.41716 -2.27364,1.46037 -4.94814,0.97546 -6.38298,-1.1573 l -0.34145,-0.50754 -1.80736,-0.1636 c -0.99405,-0.09 -1.81598,-0.15497 -1.82651,-0.14443 -0.041,0.041 -0.27237,12.09846 -0.23291,12.13791 0.0231,0.0231 0.79669,0.0189 1.7192,-0.009 l 1.67728,-0.0511 0.33787,-0.4602 c 0.33849,-0.46105 0.86176,-0.91494 1.32536,-1.14964 0.1361,-0.0689 0.69128,-0.27523 1.23372,-0.45849 0.93052,-0.31439 1.03136,-0.33338 1.78454,-0.33608 0.86083,-0.003 1.22159,0.0823 2.00747,0.47523 1.19077,0.59534 2.21361,1.91956 2.57095,3.32849 0.17877,0.70486 0.11523,1.96919 -0.13444,2.67501 -0.49945,1.41197 -1.62328,2.5658 -2.95791,3.03689 -0.78698,0.27779 -1.92076,0.31937 -2.7228,0.0999 -0.99383,-0.27199 -1.95608,-0.90961 -2.56625,-1.7005 -0.29843,-0.38682 -0.32744,-0.40534 -0.5779,-0.36893 -0.14503,0.0211 -1.05739,0.0662 -2.02747,0.10019 -0.97008,0.034 -1.77689,0.075 -1.79292,0.091 -0.016,0.016 -0.0592,1.31177 -0.096,2.87942 l -0.0668,2.85027 -0.21586,0.30376 c -0.11873,0.16707 -2.26358,3.2518 -4.76634,6.85496 l -4.55049,6.5512 0.6213,20.8808 c 0.34172,11.48443 0.62109,20.95427 0.62083,21.04408 l -4.6e-4,0.16329 H 95.066654 80.868994 Z"
       id="path1017" />
  </g>
</svg>
