<?xml version="1.0" encoding="UTF-8" standalone="no"?>
<!-- Created with Inkscape (http://www.inkscape.org/) -->

<svg
   width="63.837303mm"
   height="118.64648mm"
   viewBox="0 0 63.837303 118.64648"
   version="1.1"
   id="svg5"
   inkscape:version="1.1.2 (b8e25be833, 2022-02-05)"
   sodipodi:docname="mando.svg"
   xmlns:inkscape="http://www.inkscape.org/namespaces/inkscape"
   xmlns:sodipodi="http://sodipodi.sourceforge.net/DTD/sodipodi-0.dtd"
   xmlns="http://www.w3.org/2000/svg"
   xmlns:svg="http://www.w3.org/2000/svg">
  <sodipodi:namedview
     id="namedview7"
     pagecolor="#ffffff"
     bordercolor="#666666"
     borderopacity="1.0"
     inkscape:pageshadow="2"
     inkscape:pageopacity="0.0"
     inkscape:pagecheckerboard="0"
     inkscape:document-units="mm"
     showgrid="false"
     inkscape:zoom="1"
     inkscape:cx="102"
     inkscape:cy="233"
     inkscape:window-width="1920"
     inkscape:window-height="1027"
     inkscape:window-x="-8"
     inkscape:window-y="-8"
     inkscape:window-maximized="1"
     inkscape:current-layer="layer1" />
  <defs
     id="defs2" />
  <g
     inkscape:label="Layer 1"
     inkscape:groupmode="layer"
     id="layer1"
     transform="translate(-82.297792,-43.390763)">
    <path
       style="fill:#000000;stroke-width:0.0725714"
       d="m 114.52612,161.71123 c -2.47468,-0.17435 -4.66442,-0.29959 -4.86608,-0.27832 -0.29467,0.0311 -0.38882,0.0131 -0.47958,-0.0917 -0.0621,-0.0717 -1.06931,-1.63266 -2.23821,-3.46872 -1.16889,-1.83605 -2.19404,-3.41082 -2.27812,-3.49949 -0.0841,-0.0887 -2.01432,-1.45096 -4.28944,-3.02733 -2.275122,-1.57636 -4.176922,-2.94073 -4.226232,-3.03193 -0.0691,-0.12783 -0.0899,-1.57461 -0.0907,-6.31624 -7.2e-4,-3.38274 -0.0145,-6.15043 -0.031,-6.15043 -0.0165,0 -0.54184,0.098 -1.16746,0.21771 -0.80565,0.1542 -1.36325,0.2186 -1.91132,0.22075 l -0.77382,0.003 -0.3828,0.79671 c -0.33237,0.69176 -0.46143,0.87538 -0.97971,1.39396 -0.67981,0.68021 -1.28448,1.06114 -2.12092,1.33615 -0.49093,0.16142 -0.70943,0.19089 -1.41514,0.19089 -0.70757,0 -0.92437,-0.0294 -1.42462,-0.19316 -1.04671,-0.34267 -2.42818,-1.41046 -2.95977,-2.28773 -1.42995,-2.35981 -0.17438,-5.48924 2.68056,-6.68113 1.6469,-0.68756 3.3241,-0.72236 4.48484,-0.093 0.46433,0.25175 1.2215,0.95299 1.51041,1.39886 0.1302,0.20093 0.28739,0.35872 0.35735,0.35872 0.0687,0 0.38161,-0.0462 0.69535,-0.10266 0.31375,-0.0565 1.20625,-0.12349 1.98335,-0.14895 0.77709,-0.0255 1.41974,-0.0531 1.42812,-0.0615 0.008,-0.008 0.039,-2.78733 0.068,-6.17548 l 0.0528,-6.16025 -0.21089,0.0531 c -0.45088,0.1136 -1.50105,0.18346 -2.77627,0.1847 l -1.33167,0.001 -0.597,0.59872 c -0.68493,0.68688 -1.28268,1.06574 -2.10995,1.33727 -0.74675,0.24511 -1.99419,0.27717 -2.68514,0.069 -1.33335,-0.40167 -2.47117,-1.36767 -3.0882,-2.62186 -0.38242,-0.77733 -0.52404,-1.37548 -0.52404,-2.21343 0,-1.31665 0.4215,-2.35717 1.32586,-3.27301 0.89269,-0.90403 2.05266,-1.35623 3.27602,-1.27711 0.70608,0.0457 2.46498,0.59924 3.1061,0.97758 0.65746,0.38799 1.37602,1.18424 1.68119,1.86298 0.13558,0.30154 0.28628,0.54829 0.33491,0.54834 0.0486,4e-5 0.52214,-0.1006 1.05228,-0.22363 0.59859,-0.13893 1.25954,-0.23872 1.74402,-0.26333 l 0.78015,-0.0396 v -5.60919 -5.60918 l -0.48986,-0.0445 c -0.26942,-0.0245 -0.96161,-0.12412 -1.53819,-0.2214 -0.57659,-0.0973 -1.05252,-0.16964 -1.05762,-0.16081 -0.15373,0.26588 -0.80389,1.01634 -1.18411,1.36678 -0.89605,0.82589 -1.92715,1.30638 -3.08594,1.43805 -2.45092,0.27849 -4.55359,-1.20105 -5.35568,-3.7685 -0.14888,-0.47658 -0.16988,-0.68872 -0.1688,-1.70543 10e-4,-1.11402 0.0104,-1.18695 0.22749,-1.796956 0.47397,-1.331879 1.23726,-2.224863 2.36743,-2.769692 1.01825,-0.490879 1.91093,-0.592162 3.2182,-0.36514 0.83485,0.144982 1.20913,0.258251 1.73742,0.525806 0.79293,0.401578 2.06688,1.632203 2.43341,2.350652 0.0778,0.152532 0.15023,0.27733 0.16091,0.27733 0.0558,0 2.36395,0.430348 2.52382,0.470553 l 0.18763,0.04719 0.0482,-4.153384 c 0.0635,-5.464579 0.0611,-8.832675 -0.006,-8.860869 -0.0299,-0.01254 -0.61668,-0.01233 -1.30389,4.36e-4 l -1.24945,0.02327 -0.0486,0.267394 c -0.16364,0.901225 -0.71004,1.933459 -1.3674,2.583182 -1.57547,1.55718 -3.89056,1.766557 -5.97336,0.540232 -0.63213,-0.37219 -1.67925,-1.445477 -2.07524,-2.127113 -1.2342,-2.124445 -1.04963,-4.552385 0.46089,-6.062907 0.50448,-0.504475 1.16228,-0.898854 1.76845,-1.060259 0.42935,-0.114322 1.63852,-0.133494 1.99377,-0.03161 0.13285,0.0381 0.55265,0.103965 0.93289,0.146365 1.33927,0.149337 2.37431,0.518329 3.14261,1.120344 0.39431,0.308968 0.40398,0.312065 0.79828,0.255685 0.21953,-0.03139 0.97881,-0.05945 1.68729,-0.06237 l 1.28811,-0.0053 0.0126,-4.408714 c 0.007,-2.424792 0.0163,-4.508291 0.0208,-4.629996 0.01,-0.260602 6.274722,-11.873102 6.550802,-12.141988 0.16356,-0.159302 0.1728,-0.207479 0.13222,-0.689428 -0.024,-0.284987 -0.2376,-4.126773 -0.47471,-8.537301 -0.2371,-4.410529 -0.44615,-8.190593 -0.46457,-8.400143 l -0.0335,-0.381 h 10.73534 10.73532 l -4e-5,0.272143 c -4e-5,0.326374 -0.84786,17.333069 -0.89891,18.031565 l -0.0356,0.487422 4.21452,6.404047 4.21452,6.404046 0.096,3.377388 c 0.0528,1.857564 0.0974,3.690756 0.099,4.073761 l 0.003,0.696374 1.143,0.0433 c 0.62865,0.02381 1.51508,0.09806 1.96985,0.164985 0.73007,0.107439 0.83395,0.109025 0.88736,0.01355 0.21202,-0.37885 0.81344,-1.074309 1.21983,-1.410579 1.00273,-0.8297 2.22356,-1.256645 3.59086,-1.255781 1.5591,9.87e-4 2.74042,0.443756 3.67287,1.376622 0.941,0.941425 1.33637,1.899572 1.3333,3.231155 -0.002,0.924138 -0.13005,1.48429 -0.51368,2.249562 -0.34978,0.697749 -0.6546,1.094147 -1.32995,1.72946 -0.44835,0.421775 -0.7436,0.624545 -1.32234,0.908108 -0.99299,0.486548 -1.6406,0.623745 -2.69703,0.57137 -1.74917,-0.08672 -3.0601,-0.8833 -4.00429,-2.433185 l -0.29565,-0.485315 -0.8292,-0.08454 c -0.45607,-0.0465 -1.24558,-0.108249 -1.75449,-0.137232 l -0.92531,-0.0527 0.001,0.318661 c 7.2e-4,0.175264 0.0656,2.637318 0.1442,5.471232 0.0787,2.833915 0.14343,5.278742 0.14394,5.432951 9.4e-4,0.275833 0.005,0.279745 0.23679,0.241251 0.26826,-0.0445 2.09371,-0.243482 2.83024,-0.308504 l 0.48982,-0.04324 0.25889,-0.390041 c 0.96714,-1.457052 3.24915,-2.409689 5.13816,-2.144952 1.64841,0.231019 2.94305,1.129862 3.59521,2.496081 0.32395,0.678622 0.44212,1.165675 0.44212,1.822119 0,1.23488 -0.51061,2.41668 -1.45658,3.37136 -0.56613,0.57132 -1.19642,0.9583 -1.99056,1.22213 -0.5043,0.16754 -0.69974,0.19288 -1.48771,0.19288 -0.78997,0 -0.98336,-0.0252 -1.49719,-0.19516 -1.02355,-0.33853 -2.17767,-1.24398 -2.65809,-2.08536 -0.0895,-0.15674 -0.20011,-0.28523 -0.2458,-0.28554 -0.0457,-2.9e-4 -0.29061,0.0628 -0.54428,0.14029 -0.67582,0.20638 -1.84033,0.4912 -2.408,0.58895 -0.30096,0.0518 -0.51111,0.12632 -0.53547,0.18981 -0.0353,0.092 0.25173,11.79093 0.29007,11.82361 0.0145,0.0123 2.90984,0.23404 3.48965,0.26724 l 0.28146,0.0161 0.19429,-0.58058 c 0.31672,-0.9464 0.63214,-1.46273 1.31048,-2.14516 0.8874,-0.89274 1.75051,-1.31005 2.9307,-1.417 1.37945,-0.125 2.6711,0.45471 3.87093,1.73733 1.89949,2.03056 1.71427,5.23828 -0.39885,6.90751 -0.63183,0.49912 -1.48556,0.97541 -2.18214,1.21742 -0.54436,0.18912 -0.72901,0.21798 -1.38976,0.21719 -0.6365,-8e-4 -0.85717,-0.0333 -1.33981,-0.19761 -0.99045,-0.33716 -1.83465,-1.00925 -2.35476,-1.87468 -0.19769,-0.32893 -0.0765,-0.32393 -2.51029,-0.1034 l -1.74172,0.15783 -0.024,0.36286 c -0.0264,0.39844 0.25339,11.85146 0.32089,13.13766 l 0.042,0.80052 1.8075,0.002 1.80749,0.002 0.0368,-0.25793 c 0.25971,-1.82105 1.28583,-3.31768 2.7673,-4.03617 1.08407,-0.52576 2.56752,-0.73896 3.54247,-0.50912 1.3449,0.31705 2.49865,1.26138 3.09308,2.53166 0.33122,0.70781 0.57814,1.90188 0.58064,2.80798 0.003,0.91336 -0.1127,1.40686 -0.52531,2.24972 -0.2417,0.49373 -0.42695,0.74186 -0.9281,1.24313 -0.52387,0.524 -0.73813,0.6806 -1.31201,0.95899 -0.37725,0.18299 -0.89817,0.38238 -1.15761,0.44308 -1.36775,0.32 -2.71592,-0.048 -3.7778,-1.03111 l -0.50387,-0.46649 -1.25188,0.12261 c -0.68853,0.0674 -1.89502,0.14023 -2.6811,0.16176 l -1.4292,0.0391 0.0351,0.84287 c 0.0193,0.46358 0.0823,2.66301 0.14002,4.88761 0.0798,3.07569 0.0848,4.08888 0.021,4.22899 -0.0508,0.11144 -1.80812,1.48876 -4.44686,3.4852 l -4.3629,3.30095 -1.94931,3.0292 c -1.07211,1.66607 -2.04235,3.14976 -2.15609,3.2971 -0.11374,0.14733 -0.2068,0.30394 -0.2068,0.34801 0,0.13222 -0.34662,0.43702 -0.48655,0.42785 -0.0717,-0.005 -2.15505,-0.15119 -4.62973,-0.32554 z"
       id="path836" />
  </g>
</svg>
