<?xml version="1.0" encoding="UTF-8" standalone="no"?>
<!-- Created with Inkscape (http://www.inkscape.org/) -->

<svg
   width="182.41071mm"
   height="85.225281mm"
   viewBox="0 0 182.4107 85.225283"
   version="1.1"
   id="svg5"
   inkscape:version="1.1.2 (b8e25be833, 2022-02-05)"
   sodipodi:docname="musikschule_logo_blue.svg"
   xmlns:inkscape="http://www.inkscape.org/namespaces/inkscape"
   xmlns:sodipodi="http://sodipodi.sourceforge.net/DTD/sodipodi-0.dtd"
   xmlns="http://www.w3.org/2000/svg"
   xmlns:svg="http://www.w3.org/2000/svg">
  <sodipodi:namedview
     id="namedview7"
     pagecolor="#ffffff"
     bordercolor="#666666"
     borderopacity="1.0"
     inkscape:pageshadow="2"
     inkscape:pageopacity="0.0"
     inkscape:pagecheckerboard="0"
     inkscape:document-units="mm"
     showgrid="false"
     inkscape:zoom="0.74920735"
     inkscape:cx="316.33432"
     inkscape:cy="157.49979"
     inkscape:window-width="1920"
     inkscape:window-height="1027"
     inkscape:window-x="-8"
     inkscape:window-y="-8"
     inkscape:window-maximized="1"
     inkscape:current-layer="g24276" />
  <defs
     id="defs2" />
  <g
     inkscape:label="Layer 1"
     inkscape:groupmode="layer"
     id="layer1"
     transform="translate(192.37898,-24.053414)">
    <g
       id="g24276"
       transform="matrix(0.81330028,0,0,0.81330028,-101.37361,16.200782)">
      <path
         style="fill:#11374c;fill-opacity:1;stroke-width:0.233849"
         d="m 49.237872,107.59967 c -0.202909,-0.24449 -0.210695,-0.46292 -0.02864,-0.8031 0.137542,-0.25701 0.250077,-0.65007 0.250077,-0.87348 0,-0.2234 0.138848,-0.57233 0.308553,-0.77538 0.169704,-0.20305 0.488603,-0.84273 0.708663,-1.4215 0.396931,-1.04397 0.395873,-1.05507 -0.133167,-1.39847 -0.293302,-0.19037 -0.887094,-0.69152 -1.319538,-1.11365 -0.674709,-0.65861 -0.74237,-0.8204 -0.476895,-1.14027 0.224859,-0.270938 0.576113,-0.342697 1.285868,-0.262701 l 0.9765,0.110065 -0.709745,-1.386734 c -0.651913,-1.273736 -0.679122,-1.417351 -0.333919,-1.76256 0.271544,-0.271542 0.740129,-0.361084 1.688761,-0.322708 l 1.312936,0.05312 -0.601689,-0.885465 c -0.759913,-1.118317 -0.75377,-1.245237 0.09986,-2.06307 0.38585,-0.369666 0.701547,-0.775578 0.701547,-0.902028 0,-0.126451 0.305516,-0.922313 0.678923,-1.768579 2.570098,-5.824701 3.500026,-8.471055 4.238554,-12.06188 0.495294,-2.408195 1.678222,-4.030296 2.463714,-3.378403 0.441156,0.36613 0.424142,0.660378 -0.109128,1.887128 -0.244723,0.56297 -0.620228,1.812824 -0.834455,2.777446 -0.775343,3.491242 -1.099773,4.470766 -2.367784,7.148797 -0.709206,1.497841 -1.610827,3.685386 -2.003602,4.86121 -0.392775,1.175824 -0.816454,2.331098 -0.941508,2.567278 -0.177461,0.335151 -0.04714,0.686869 0.593665,1.602254 0.451569,0.645061 0.766105,1.315983 0.698969,1.490939 -0.16524,0.430606 -0.929151,0.647341 -2.125037,0.602902 -0.546622,-0.02033 -0.993858,0.0062 -0.993858,0.05798 0,0.05223 0.261812,0.55292 0.581805,1.112673 0.600387,1.050226 0.763569,2.167436 0.353591,2.420826 -0.128617,0.0795 -0.233849,0.35848 -0.233849,0.61999 0,0.26151 -0.210464,0.74304 -0.467698,1.07006 -0.539656,0.68606 -0.607602,1.23306 -0.153169,1.23306 0.172992,0 0.485116,0.1885 0.693611,0.41888 0.350883,0.38772 0.34268,0.47873 -0.110282,1.22357 -0.269149,0.44258 -0.660198,0.93474 -0.868997,1.0937 -0.533502,0.40614 -2.477319,0.38415 -2.822643,-0.0319 z M 61.205144,91.979941 c -0.647233,-0.311925 -0.916508,-1.223569 -0.507115,-1.716857 0.216043,-0.260317 0.534312,-0.321947 1.136935,-0.220129 0.771662,0.130366 0.919944,0.05338 1.902516,-0.987672 l 1.065636,-1.129069 -0.284234,-1.114193 c -0.156333,-0.61281 -0.451721,-1.467146 -0.656436,-1.898539 -0.204706,-0.431384 -0.372193,-0.959504 -0.372193,-1.173605 0,-0.497363 0.422713,-1.293914 0.686654,-1.293914 0.111381,0 0.703209,0.499847 1.31517,1.110782 0.61197,0.610927 1.027268,0.900314 0.922886,0.643081 -0.10439,-0.257232 -0.237752,-0.808632 -0.296386,-1.225336 -0.162255,-1.153206 0.40341,-1.202701 2.409442,-0.210795 2.406984,1.190159 3.212541,1.154753 5.299983,-0.23298 1.527388,-1.015407 4.876394,-4.54378 4.85261,-5.112504 -0.03871,-0.926519 -2.633592,-3.622183 -5.097142,-5.295175 -1.801679,-1.223515 -4.951768,-3.066849 -6.879721,-4.025788 -0.997845,-0.49631 -1.875921,-1.002149 -1.951269,-1.124075 -0.07539,-0.121925 -0.07247,-0.478775 0.0062,-0.793006 0.169353,-0.674758 0.81322,-0.750291 1.660928,-0.194851 0.693256,0.454249 1.279745,0.282227 1.279745,-0.37534 0,-0.588221 0.761277,-3.64032 1.569141,-6.290987 0.536402,-1.75998 0.584412,-2.220804 0.462946,-4.443137 -0.13148,-2.405465 -0.40973,-3.551954 -1.318555,-5.43301 -0.390692,-0.808642 -0.443908,-1.635278 -0.506086,-7.86133 -0.06266,-6.272975 -0.01962,-7.24533 0.436793,-9.880787 0.278453,-1.607711 0.566081,-3.399765 0.639166,-3.982338 0.109507,-0.872924 0.419638,-1.404888 1.763232,-3.024443 0.896689,-1.080873 1.630346,-2.058151 1.630346,-2.171734 0,-0.113573 0.289387,-0.173205 0.643081,-0.132513 0.526017,0.06054 0.653749,0.201718 0.701618,0.775542 0.04764,0.570632 -0.18398,0.956163 -1.241007,2.065928 -1.49146,1.565897 -1.582407,1.757399 -1.961804,4.131071 -0.154177,0.964631 -0.438348,2.543105 -0.631494,3.507735 -0.266521,1.331141 -0.345687,3.342069 -0.328443,8.34327 0.02263,6.566683 0.02484,6.5941 0.63023,7.950872 1.414354,3.169569 1.779839,5.764953 1.247724,8.860138 -0.30663,1.783551 -0.722353,3.428358 -0.941765,3.72607 -0.342771,0.465093 -1.158174,3.793825 -1.158174,4.728016 0,0.9431 0.02139,0.967361 1.520017,1.720401 0.836005,0.420097 1.520017,0.834193 1.520017,0.920208 0,0.086 0.27536,0.281865 0.611917,0.435202 0.976969,0.445137 4.059409,2.842744 5.385167,4.188724 1.225045,1.243747 2.423265,3.026697 2.419394,3.600052 -0.0027,0.437651 -2.084074,3.072895 -3.850452,4.875679 -1.814583,1.851995 -4.098767,3.268798 -5.262252,3.26399 -0.453082,-0.0018 -1.284456,-0.163829 -1.847497,-0.359908 -0.563032,-0.196071 -1.069047,-0.311147 -1.124482,-0.255721 -0.05542,0.05542 0.06328,0.493323 0.263694,0.973088 0.200463,0.479766 0.364477,1.122537 0.364477,1.428372 0,0.473481 -0.114917,0.556058 -0.773774,0.556058 -0.425577,0 -0.978047,-0.154495 -1.227714,-0.343336 -0.656719,-0.496717 -0.833221,-0.436324 -0.666476,0.228022 0.165419,0.659079 -0.714451,1.77679 -2.806038,3.564592 -1.188551,1.015911 -1.721028,1.157422 -2.657337,0.706179 z m 9.76828,-14.545661 c -0.578773,-0.16108 -1.631098,-0.562316 -2.338487,-0.891634 -0.707398,-0.329319 -2.022798,-0.831976 -2.923111,-1.117005 -0.900323,-0.285029 -2.215722,-0.724005 -2.92312,-0.97551 -0.707389,-0.251497 -2.02809,-0.715026 -2.934884,-1.030061 -2.940247,-1.021479 -4.080583,-2.415876 -4.080583,-4.989703 0,-1.065255 0.150023,-1.730043 0.583425,-2.585325 0.743513,-1.467252 3.37384,-4.913189 3.750299,-4.913189 0.852247,0 0.985609,1.246637 0.237656,2.221564 -0.197345,0.257232 -0.885709,1.138817 -1.5297,1.959064 -1.141866,1.454392 -1.170888,1.530411 -1.170888,3.066964 0,1.227891 0.104484,1.708425 0.47346,2.177505 0.465382,0.591642 1.686355,1.331954 2.196732,1.331954 0.142915,0 0.626599,0.191828 1.074855,0.426293 0.448255,0.234456 1.4464,0.610803 2.218098,0.836332 0.771706,0.225529 1.613562,0.492864 1.870795,0.594081 0.257232,0.101226 1.046474,0.369516 1.753872,0.596211 1.171979,0.375579 2.756206,1.022469 3.796874,1.550377 0.223328,0.113299 0.591641,0.20719 0.81847,0.208648 0.580257,0.0035 2.940319,1.223153 3.049853,1.575823 0.120564,0.388164 -2.47748,0.360093 -3.923616,-0.04242 z m 8.054563,-11.487305 c -42.410248,-39.193071 -21.205124,-19.596535 0,0 z m -45.398035,-6.09923 c -0.249914,-0.651265 0.263519,-1.135114 1.240342,-1.168868 0.49987,-0.01732 1.803327,-0.313276 2.896572,-0.657779 1.093244,-0.344503 3.040036,-0.897052 4.326205,-1.2279 1.28617,-0.330847 2.499793,-0.679168 2.69694,-0.774048 0.197147,-0.09488 0.723308,-0.251408 1.169245,-0.347843 0.73431,-0.158791 3.619732,-1.213918 4.786229,-1.750195 2.259837,-1.038935 6.137634,-1.626502 7.885824,-1.194862 2.393165,0.590881 6.581722,3.39296 6.450225,4.315095 -0.134194,0.94105 -1.146012,0.757238 -2.796881,-0.508083 -1.840129,-1.410386 -2.510056,-1.750372 -4.231656,-2.14757 -1.038053,-0.239493 -1.480736,-0.248394 -1.940257,-0.03907 -0.327447,0.149192 -0.93241,0.275731 -1.344362,0.281184 -0.411954,0.0053 -1.433015,0.255889 -2.269026,0.556509 -3.889741,1.398684 -5.27936,1.915791 -5.495451,2.044965 -0.128617,0.07689 -0.602161,0.216929 -1.05232,0.311217 -0.45016,0.09429 -0.923705,0.252353 -1.052321,0.351273 -0.128617,0.09891 -0.598708,0.257992 -1.044645,0.3535 -0.445937,0.09552 -0.972098,0.253149 -1.169245,0.350292 -0.398576,0.196406 -4.026737,1.006126 -6.218751,1.387883 -1.984248,0.345572 -2.664459,0.31302 -2.836667,-0.135749 z m 17.716611,-9.642203 c -0.128617,-0.240316 -0.158628,-0.520166 -0.06669,-0.621878 0.09194,-0.101712 -0.04331,-0.103922 -0.30054,-0.0053 -0.257233,0.09902 -0.903894,0.233448 -1.437022,0.298755 -1.360162,0.166613 -1.510417,-0.4111 -0.570907,-2.195057 0.741825,-1.408592 0.767887,-1.799266 0.08011,-1.200854 -0.56212,0.489089 -2.628636,1.912839 -3.290269,2.266878 -0.651722,0.348727 -1.212758,0.0044 -1.212758,-0.744935 0,-0.891501 1.967152,-3.685315 4.326206,-6.144208 2.401559,-2.503199 5.430391,-3.791518 8.184715,-3.48137 1.749565,0.197008 2.221566,0.439197 2.221566,1.139922 0,0.743812 -0.35547,0.836182 -2.621899,0.681299 -1.919264,-0.131162 -1.95664,-0.123057 -3.834419,0.832019 -1.878585,0.955491 -3.334453,2.131907 -3.864893,3.123044 -0.310552,0.580275 -0.524107,0.694529 1.979151,-1.058857 0.789282,-0.552841 1.403278,-0.827343 1.643967,-0.734982 0.606511,0.232741 0.471015,1.566454 -0.29032,2.85768 -0.37097,0.629161 -0.74967,1.380813 -0.841558,1.670314 -0.144879,0.456476 -0.10194,0.505715 0.323309,0.370744 1.362047,-0.432294 2.550423,-0.0335 2.242603,0.752553 -0.06296,0.16077 -0.178343,0.450157 -0.256412,0.643081 -0.204701,0.505865 0.299744,0.436033 1.75974,-0.243586 0.69686,-0.324386 1.344636,-0.507518 1.439502,-0.406946 0.09486,0.100555 0.05086,0.547256 -0.09778,0.992649 -0.216055,0.647403 -0.427026,0.841688 -1.051932,0.968757 -0.429922,0.08741 -0.898205,0.275475 -1.040628,0.417897 -0.142424,0.142422 -0.918213,0.258947 -1.723974,0.258947 -1.191323,0 -1.508709,-0.08167 -1.69887,-0.436952 z m 10.071075,-1.087343 c -2.251879,-1.287311 -3.292414,-2.537845 -2.830232,-3.401435 0.356217,-0.665602 1.219725,-0.51108 1.39012,0.248756 0.193893,0.864606 1.938813,1.707161 3.153181,1.522545 0.509639,-0.07751 0.958638,-0.172897 0.997792,-0.212051 0.108942,-0.108942 -0.861336,-4.06754 -1.170883,-4.776989 -0.150191,-0.344229 -0.644256,-0.966787 -1.097922,-1.383473 l -0.824853,-0.757609 0.556614,-0.473781 c 0.553666,-0.471272 0.560471,-0.47136 1.286174,-0.01688 0.401254,0.251258 0.911123,0.70016 1.133054,0.997536 0.665734,0.892094 1.809758,4.410718 1.964553,6.042319 l 0.144799,1.526187 -0.788729,0.376904 c -0.850544,0.406433 -2.32385,0.898678 -2.676122,0.894109 -0.119486,-0.0018 -0.676384,-0.265285 -1.237546,-0.586083 z"
         id="path2867"
         sodipodi:nodetypes="ssssssssscssscsssssssssssssssscsssssssscssscssssssssscssccsssssccssscccssccssssscscscsscssssscccssssssssssssssssscsccccccssssssssscccsssssscccscsssssssssssssssssssssssscccsscssscsccscsccc" />
      <path
         style="fill:#cc5e6a;fill-opacity:1;stroke-width:0.233849"
         d="M 70.505709,98.569591 C 66.293001,98.15439 60.616092,95.681259 58.197697,93.207652 57.433442,92.425958 56.537839,90.712964 56.771332,90.47948 c 0.240033,-0.240041 0.977729,0.118223 1.811507,0.879765 4.001825,3.655104 9.09915,5.70113 14.419794,5.78794 2.418773,0.03951 5.635813,-0.438066 7.207806,-1.069904 3.356519,-1.349119 3.457895,-1.399772 5.495441,-2.745989 3.658454,-2.417149 7.075834,-6.755171 8.030819,-10.19432 0.7401,-2.665286 0.855352,-3.23834 0.852011,-4.236407 -0.0035,-1.144641 0.384126,-0.775117 -4.881836,-4.649847 l -2.383595,-1.753872 0.132319,-2.45541 c 0.07274,-1.350479 0.188063,-3.507735 0.256172,-4.793906 0.06814,-1.286171 0.171765,-2.503287 0.230328,-2.704714 0.0586,-0.201427 0.902865,-0.7802 1.876228,-1.286171 0.973354,-0.505971 1.865572,-1.034383 1.982707,-1.174259 0.407441,-0.486527 -0.911477,-4.448626 -2.289584,-6.878077 -0.983092,-1.733076 -2.665682,-3.817919 -3.941538,-4.883819 -2.196549,-1.835106 -3.430856,-2.403343 -6.879495,-3.167121 -1.179642,-0.261263 -1.30962,-0.355295 -1.569389,-1.135388 -0.164835,-0.49503 -0.339208,-2.931499 -0.417163,-5.829155 -0.259857,-9.65882 -0.321142,-11.222764 -0.444623,-11.346245 -0.21191,-0.211909 0.323555,-0.998605 0.679689,-0.998605 0.244603,0 0.300638,-0.180356 0.204839,-0.659317 -0.07407,-0.370187 0.02952,-1.045511 0.236108,-1.539992 0.696898,-1.66791 0.445482,-3.692758 -0.736688,-5.933158 -0.504858,-0.956783 -2.00115,-1.482614 -2.577855,-0.905918 -0.447761,0.447763 -0.63631,2.411803 -0.312056,3.25062 0.277649,0.718269 1.169846,0.886826 1.647534,0.311262 0.222294,-0.267857 0.148909,-0.392451 -0.380607,-0.646237 -0.393094,-0.188408 -0.655992,-0.500589 -0.655992,-0.778963 0,-0.393114 0.139505,-0.456087 0.907241,-0.409562 1.532275,0.09286 1.719914,0.49495 1.157404,2.480247 -0.155556,0.549023 -1.591175,1.157404 -2.257198,0.956543 -0.279947,-0.08441 -0.79838,-0.424446 -1.152075,-0.755603 -0.585693,-0.548368 -0.64309,-0.751651 -0.64309,-2.277644 0,-1.833347 0.528156,-2.989578 1.612555,-3.530205 0.620782,-0.309502 2.369631,0.148106 3.146826,0.823403 1.020197,0.88642 1.781368,3.300309 1.785619,5.662651 0.0035,1.738909 -0.289174,2.808327 -1.048197,3.83495 -0.608885,0.823552 -0.944399,1.753863 -0.632519,1.753863 0.380837,0 0.523011,1.814989 0.641136,8.184718 0.15758,8.497711 0.14221,8.418564 1.635091,8.418564 0.304977,0 0.848838,0.118328 1.208587,0.262959 0.359749,0.144632 0.864553,0.345626 1.121786,0.446639 2.48027,0.974044 4.921247,2.795865 6.911413,5.15834 2.673344,3.173458 3.962829,5.798671 4.414356,8.98704 0.261342,1.845402 0.201171,1.973868 -1.268308,2.707755 -2.133923,1.065741 -2.193715,1.168938 -2.560304,4.419069 -0.181329,1.607712 -0.363894,3.446026 -0.405691,4.085138 l -0.07601,1.162018 1.552586,1.176469 c 0.853921,0.647059 2.504057,1.89716 3.666947,2.778012 1.162902,0.880849 2.158538,1.722706 2.212522,1.870793 0.14609,0.40075 -0.430341,4.844382 -0.765439,5.900657 -1.35306,4.264991 -2.453693,6.116836 -5.352251,9.005354 -2.088128,2.080892 -3.608437,3.173038 -5.96217,4.283099 -4.111359,1.938974 -8.876891,2.718343 -13.709329,2.242051 z M 84.380891,76.054755 c -1.141926,-0.640322 -1.981767,-2.663473 -2.320153,-5.589226 -0.329115,-2.845572 -0.3427,-2.871486 -1.546921,-2.949954 -1.235993,-0.08052 -1.563402,-0.51313 -1.018156,-1.345282 0.378981,-0.578393 1.486846,-0.926307 2.214378,-0.695395 0.603494,0.191545 1.076905,1.563237 1.535679,4.449606 0.380775,2.395628 0.93904,4.449846 1.350494,4.969295 0.349479,0.441195 0.866621,0.352572 1.364497,-0.233846 l 0.446718,-0.526158 0.475391,0.561556 c 0.563376,0.665504 0.504557,0.974158 -0.260008,1.364247 -0.713134,0.363859 -1.587763,0.361968 -2.241919,-0.0044 z m -5.46636,-49.637892 c -0.487517,-0.587426 0.245327,-1.099787 1.75173,-1.224709 1.179748,-0.09783 1.298041,-0.06487 1.298041,0.3621 0,0.356001 -0.279576,0.561175 -1.154727,0.847424 -1.422385,0.465244 -1.52088,0.466031 -1.895044,0.0152 z m 0.79585,-2.560605 c -0.219732,-0.572604 0.03756,-0.902656 1.184812,-1.519849 0.936895,-0.504036 1.116872,-0.536216 1.308011,-0.233855 0.345607,0.546716 0.295573,0.63297 -0.807193,1.391693 -1.163114,0.800245 -1.490488,0.870554 -1.68563,0.362011 z"
         id="path2867-7"
         sodipodi:nodetypes="sssscssscsccccsssssssssscssssssssssssscssssscssssscsssssssscssssssscssccsssssssssss" />
    </g>
    <text
       xml:space="preserve"
       style="font-style:normal;font-weight:normal;font-size:7.60755px;line-height:1.05;font-family:sans-serif;text-align:start;text-anchor:start;fill:#11374c;fill-opacity:1;stroke:none;stroke-width:0.190189"
       x="-66.654808"
       y="86.707436"
       id="text13348"><tspan
         sodipodi:role="line"
         style="font-style:normal;font-variant:normal;font-weight:normal;font-stretch:normal;font-size:16.2295px;font-family:Catamaran;-inkscape-font-specification:'Catamaran, @wght=400';font-variant-ligatures:normal;font-variant-caps:normal;font-variant-numeric:normal;font-variant-east-asian:normal;font-variation-settings:'wght' 400;text-align:end;text-anchor:end;fill:#11374c;fill-opacity:1;stroke-width:0.190189"
         x="-66.654808"
         y="86.707436"
         id="tspan13350">Joseph-Schmidt</tspan><tspan
         sodipodi:role="line"
         style="font-style:normal;font-variant:normal;font-weight:normal;font-stretch:normal;font-size:16.2295px;font-family:Catamaran;-inkscape-font-specification:'Catamaran, @wght=400';font-variant-ligatures:normal;font-variant-caps:normal;font-variant-numeric:normal;font-variant-east-asian:normal;font-variation-settings:'wght' 400;text-align:end;text-anchor:end;fill:#11374c;fill-opacity:1;stroke-width:0.190189"
         x="-66.654808"
         y="103.74841"
         id="tspan34014">Musikschule</tspan></text>
  </g>
</svg>
